<?xml version="1.0" standalone="no"?>
<!DOCTYPE svg PUBLIC "-//W3C//DTD SVG 20010904//EN"
 "http://www.w3.org/TR/2001/REC-SVG-20010904/DTD/svg10.dtd">
<svg version="1.0" xmlns="http://www.w3.org/2000/svg"
 width="450.000000pt" height="450.000000pt" viewBox="0 0 450.000000 450.000000"
 preserveAspectRatio="xMidYMid meet">
<metadata>
Created by potrace 1.10, written by Peter Selinger 2001-2011
</metadata>
<g transform="translate(0.000000,450.000000) scale(0.100000,-0.100000)"
fill="#4492d8" stroke="none">
<path d="M2183 2988 c-52 -56 -63 -88 -63 -188 0 -57 5 -102 13 -118 8 -15 28
-55 45 -89 29 -58 31 -68 33 -187 2 -109 4 -128 21 -143 17 -15 20 -15 35 0
13 13 16 36 15 119 -1 101 9 157 35 189 7 8 13 20 13 26 0 6 6 24 14 40 8 15
21 45 30 66 21 48 21 165 1 191 -8 11 -15 27 -15 36 0 9 -16 33 -35 53 -49 50
-97 52 -142 5z m97 -183 c0 -79 -3 -97 -16 -102 -35 -13 -49 10 -51 88 -1 85
8 109 42 109 25 0 25 -1 25 -95z"/>
<path d="M1735 2820 c-65 -43 -65 -141 1 -246 38 -61 164 -154 208 -154 16 0
116 -93 116 -108 0 -18 61 -62 86 -62 19 0 24 5 24 24 0 13 -4 26 -8 28 -4 2
-28 30 -53 63 -44 58 -59 98 -76 210 -8 54 -66 156 -108 191 -48 40 -112 74
-140 74 -11 0 -33 -9 -50 -20z m145 -91 c14 -24 -2 -49 -31 -49 -23 0 -36 -44
-19 -65 19 -23 43 -18 71 16 29 36 49 32 49 -9 0 -32 -7 -43 -40 -65 -39 -27
-72 -21 -113 20 -58 57 -47 116 28 156 39 21 42 21 55 -4z"/>
<path d="M2652 2818 c-46 -20 -142 -111 -142 -133 0 -7 -7 -18 -15 -25 -8 -7
-15 -26 -15 -42 0 -16 -7 -45 -15 -65 -8 -19 -15 -53 -15 -75 0 -33 -10 -53
-61 -119 -58 -77 -69 -109 -35 -109 32 0 63 23 101 77 22 30 49 59 60 64 11 5
28 13 38 19 29 17 50 28 94 50 81 41 156 149 166 240 6 63 -4 91 -42 117 -41
27 -62 28 -119 1z m68 -93 c7 -9 9 -26 5 -47 -10 -49 -37 -132 -45 -141 -14
-16 -50 12 -50 38 0 30 -32 50 -59 36 -22 -12 -31 -5 -31 23 0 15 12 28 38 41
20 11 52 30 71 42 39 27 54 28 71 8z"/>
<path d="M2637 2654 c-8 -8 1 -24 14 -24 5 0 9 7 9 15 0 15 -12 20 -23 9z"/>
<path d="M532 2078 l3 -143 130 2 c72 1 133 3 137 3 4 0 5 62 4 138 l-4 137
-136 3 -137 3 3 -143z m183 72 c22 -8 26 -16 24 -43 -1 -17 2 -40 6 -50 5 -12
1 -25 -11 -38 -15 -16 -28 -19 -73 -17 l-56 3 -3 68 c-3 62 -1 68 20 77 31 12
61 12 93 0z"/>
<path d="M656 2113 c-11 -11 -6 -23 9 -23 8 0 15 4 15 9 0 13 -16 22 -24 14z"/>
<path d="M655 2051 c-7 -12 12 -24 25 -16 11 7 4 25 -10 25 -5 0 -11 -4 -15
-9z"/>
<path d="M866 2212 c-3 -3 -6 -65 -6 -139 l0 -134 131 3 131 3 0 128 c0 71 -3
131 -7 135 -8 8 -241 12 -249 4z m156 -84 c37 -74 50 -109 44 -123 -8 -21 -30
-19 -51 5 -23 25 -33 25 -60 0 -22 -20 -55 -19 -55 2 0 6 11 32 25 60 14 27
25 56 25 63 0 7 6 16 13 18 28 12 43 5 59 -25z"/>
<path d="M1169 2217 c-4 -8 -3 -277 1 -277 11 -1 246 -1 255 -1 6 1 9 53 9
138 l-2 138 -131 2 c-72 1 -131 1 -132 0z m108 -77 c6 -23 33 -27 33 -5 0 8
12 18 26 21 35 9 51 -15 25 -36 -30 -25 -32 -46 -5 -71 26 -24 32 -48 12 -50
-28 -3 -44 4 -60 24 l-18 22 -6 -22 c-4 -16 -14 -23 -30 -23 -13 0 -24 3 -25
8 -7 70 -3 126 8 138 20 20 34 17 40 -6z"/>
<path d="M1494 2208 c-5 -7 -7 -71 -4 -142 l5 -129 130 0 130 0 -1 139 0 139
-126 3 c-93 2 -127 -1 -134 -10z m184 -60 c17 -15 -3 -38 -34 -38 -13 0 -24
-5 -24 -11 0 -6 9 -8 21 -4 24 8 41 -9 32 -32 -4 -10 -14 -12 -29 -9 -14 4
-24 2 -24 -4 0 -5 14 -10 30 -10 23 0 30 -4 30 -20 0 -18 -7 -20 -65 -20 l-65
0 0 74 c0 50 4 76 13 79 22 9 102 5 115 -5z"/>
<path d="M1806 2211 c-3 -4 -6 -66 -7 -137 l-1 -129 128 0 129 0 0 133 0 134
-122 3 c-68 2 -125 0 -127 -4z m182 -67 c24 -16 28 -44 12 -74 -8 -14 -7 -25
2 -40 10 -15 10 -22 0 -32 -9 -9 -19 -7 -43 11 l-32 24 -17 -23 c-15 -20 -18
-21 -33 -5 -19 19 -21 135 -3 147 19 13 91 8 114 -8z"/>
<path d="M1915 2110 c-3 -6 1 -13 10 -16 19 -8 30 0 20 15 -8 14 -22 14 -30 1z"/>
<path d="M2555 2211 c-93 -5 -110 -9 -113 -23 -7 -37 55 -88 72 -59 3 5 21 9
38 9 18 0 46 5 61 11 16 6 30 11 33 11 2 0 4 -29 4 -65 0 -62 -1 -65 -24 -65
-13 0 -26 -7 -30 -15 -7 -19 -40 -19 -56 0 -15 18 -32 10 -28 -13 2 -10 -4
-17 -12 -17 -10 0 -16 13 -18 45 -3 54 -8 70 -21 70 -5 0 -9 -21 -8 -47 1 -27
-2 -60 -6 -74 -8 -24 -6 -27 30 -32 21 -4 78 -7 126 -7 l88 0 -6 83 c-4 46 -2
101 4 127 9 42 1 74 -18 68 -3 -1 -55 -4 -116 -7z m95 -221 c0 -5 -7 -10 -15
-10 -8 0 -15 5 -15 10 0 6 7 10 15 10 8 0 15 -4 15 -10z"/>
<path d="M2750 2209 c-4 -60 -1 -262 4 -266 3 -3 63 -6 133 -5 l128 0 0 139 0
138 -132 1 c-73 1 -133 -2 -133 -7z m178 -55 c14 -4 22 -14 22 -29 0 -28 -24
-39 -50 -23 -16 11 -22 9 -34 -7 -13 -18 -13 -22 3 -38 15 -16 22 -17 38 -6
20 12 53 7 53 -9 0 -25 -30 -47 -67 -47 -45 0 -80 30 -89 75 -5 24 0 35 24 60
30 30 55 36 100 24z"/>
<path d="M3073 2212 c-8 -5 -11 -53 -11 -139 l1 -131 126 -4 c69 -2 130 0 135
3 4 4 9 66 10 138 1 109 -2 132 -14 135 -26 7 -236 5 -247 -2z m142 -60 c6 -4
18 -25 28 -47 10 -22 25 -52 32 -67 11 -22 11 -29 0 -38 -15 -12 -41 -4 -49
16 -7 18 -43 18 -53 0 -13 -22 -52 -30 -59 -12 -4 9 -2 22 4 29 5 6 13 23 17
36 11 37 46 91 58 91 7 0 17 -4 22 -8z"/>
<path d="M3385 2207 c-3 -7 -4 -70 -2 -142 1 -97 5 -130 15 -129 6 1 65 2 130
2 l117 2 -1 137 -2 138 -127 2 c-89 1 -127 -2 -130 -10z m189 -53 c38 -15 11
-43 -42 -45 -26 -1 -26 -1 3 -8 21 -4 31 -13 33 -29 3 -18 -1 -22 -26 -22 -24
0 -32 -6 -40 -29 -8 -24 -14 -28 -36 -24 -25 5 -26 8 -26 74 0 54 4 70 18 78
19 11 91 14 116 5z"/>
<path d="M3695 2210 c-8 -12 -10 -259 -3 -266 4 -3 244 -8 273 -5 6 1 10 54
10 139 l0 137 -137 3 c-91 2 -139 -1 -143 -8z m170 -52 c14 -6 25 -19 25 -30
0 -14 -8 -18 -37 -19 -28 -1 -31 -3 -13 -6 57 -11 61 -49 7 -56 -31 -4 -31 -4
4 -5 23 -1 39 -8 43 -17 8 -21 -11 -27 -75 -23 l-54 3 -3 67 c-3 64 -2 67 25
82 34 19 45 19 78 4z"/>
<path d="M2120 2205 c-1 -3 -1 -62 -2 -132 l0 -128 136 -3 136 -3 0 136 0 135
-135 0 c-74 0 -135 -2 -135 -5z m115 -67 l16 -23 16 23 c16 23 47 30 58 12 3
-5 -6 -27 -20 -49 -14 -23 -25 -54 -25 -70 0 -30 -19 -45 -44 -35 -7 3 -16 22
-19 44 -2 21 -15 51 -27 68 -12 17 -19 35 -16 41 12 18 44 12 61 -11z"/>
<path d="M2055 1898 c-18 -9 -55 -51 -128 -148 -24 -32 -27 -41 -18 -59 21
-38 53 -26 90 32 19 28 40 59 48 67 77 85 92 121 51 119 -13 0 -32 -5 -43 -11z"/>
<path d="M2226 1894 c-14 -13 -16 -48 -16 -225 l0 -209 26 -6 c29 -7 55 12 56
42 0 10 -1 101 -2 201 -1 148 -4 186 -16 198 -19 19 -29 19 -48 -1z"/>
<path d="M2390 1886 c0 -13 7 -30 17 -37 18 -16 93 -114 108 -143 16 -30 42
-43 63 -30 27 17 25 46 -5 81 -16 17 -41 48 -58 69 -52 66 -73 84 -100 84 -20
0 -25 -5 -25 -24z"/>
</g>
</svg>
